<svg width="18" height="18" viewBox="0 0 18 18" fill="none" xmlns="http://www.w3.org/2000/svg">
    <g clip-path="url(#clip0_2209_40501)">
        <path d="M17.7168 11.4582C17.7033 11.5047 17.6895 11.551 17.6753 11.5971L17.6616 11.6412C17.6441 11.6967 17.626 11.7519 17.6074 11.8069L17.5948 11.8445C17.5753 11.9012 17.5553 11.9578 17.5347 12.014L17.5203 12.0533C17.4998 12.1086 17.4787 12.1637 17.4571 12.2185L17.4408 12.2598C17.4189 12.3144 17.3966 12.3689 17.3737 12.423L17.3563 12.4637C17.3341 12.5156 17.3113 12.5673 17.2881 12.6187L17.2686 12.6616C17.2454 12.7121 17.2219 12.7623 17.1978 12.8123L17.1762 12.857C17.1522 12.9061 17.1278 12.9549 17.103 13.0035L17.0795 13.0492C17.0541 13.0981 17.0283 13.1467 17.0021 13.1951L16.979 13.2375C16.9518 13.287 16.9241 13.3362 16.896 13.3852L16.8706 13.4292C16.8426 13.4773 16.8141 13.5251 16.7852 13.5727L16.7589 13.6157C16.7307 13.6616 16.702 13.7072 16.6729 13.7526L16.6431 13.7988C16.6148 13.8425 16.586 13.8859 16.5569 13.9291L16.5236 13.9782C16.4946 14.0207 16.4651 14.0628 16.4353 14.1048L16.4003 14.1538C16.3702 14.1955 16.3399 14.237 16.309 14.2782L16.2736 14.3255C16.2424 14.3668 16.2107 14.4078 16.1787 14.4486L16.1413 14.4959C16.1086 14.5372 16.0753 14.5781 16.0418 14.6188L16.004 14.6643C15.9724 14.7021 15.9405 14.7396 15.9083 14.7769C15.8931 14.7945 15.8779 14.812 15.8625 14.8294C15.8315 14.8648 15.8001 14.8999 15.7685 14.9349L15.7167 14.9915C15.6857 15.0252 15.6543 15.0586 15.6228 15.0918C15.6049 15.1106 15.587 15.1294 15.5689 15.148C15.5371 15.181 15.5049 15.2137 15.4726 15.2462C15.4549 15.2639 15.4373 15.2814 15.4195 15.2989C15.3854 15.3326 15.3511 15.366 15.3164 15.399L15.2709 15.4423C15.2336 15.4775 15.1959 15.5123 15.1581 15.5468C15.1399 15.5634 15.1215 15.5798 15.1032 15.5962C15.0693 15.6266 15.0351 15.6568 15.0007 15.6866C14.9822 15.7028 14.9635 15.7189 14.9447 15.7348C14.9102 15.7643 14.8754 15.7936 14.8404 15.8226C14.8213 15.8383 14.8022 15.8542 14.7831 15.8698C14.7468 15.8993 14.7104 15.9283 14.6738 15.9573C14.6559 15.9714 14.638 15.9855 14.62 15.9995C14.5825 16.0286 14.5446 16.0574 14.5066 16.086C14.4841 16.1028 14.4616 16.1196 14.439 16.1364C14.4034 16.1626 14.3676 16.1885 14.3316 16.2142C14.3094 16.2301 14.2871 16.2459 14.2647 16.2616C14.2279 16.2874 14.1909 16.3129 14.1537 16.3381C14.1305 16.3539 14.1073 16.3694 14.084 16.3849C14.0446 16.4112 14.0051 16.4371 13.9652 16.4627C13.9455 16.4754 13.9257 16.4879 13.9059 16.5004C13.8635 16.5271 13.821 16.5536 13.7783 16.5797C13.76 16.5908 13.7415 16.6018 13.7232 16.6128C13.6809 16.6381 13.6385 16.6631 13.5958 16.6877L13.5403 16.7194C13.4967 16.7441 13.4529 16.7685 13.4089 16.7925L13.3556 16.8213C13.3099 16.8457 13.264 16.8698 13.2179 16.8936L13.1683 16.9189C13.1193 16.9437 13.0701 16.9681 13.0206 16.992L12.98 17.0116C12.9277 17.0365 12.875 17.0609 12.8221 17.0849L12.7792 17.1043C12.7242 17.1289 12.6689 17.1529 12.6133 17.1765L12.5775 17.1915C12.5211 17.2151 12.4643 17.2382 12.4072 17.2607L12.3727 17.2741C12.3168 17.2958 12.2607 17.3171 12.2044 17.3377L12.1693 17.3504C12.1129 17.3708 12.0562 17.3906 11.9992 17.41L11.9649 17.4215C11.9073 17.4407 11.8494 17.4594 11.7914 17.4775L11.7578 17.4879C11.6993 17.5059 11.6404 17.5233 11.5813 17.5401L11.5487 17.5494C11.4881 17.5664 11.4271 17.5829 11.3659 17.5986L11.3383 17.6058C11.273 17.6224 11.2075 17.6383 11.1417 17.6535L11.1289 17.6565C11.0586 17.6726 10.988 17.688 10.917 17.7024L10.9103 17.7037C10.8408 17.7178 10.7711 17.7311 10.7012 17.7436L10.6839 17.7466C10.6168 17.7584 10.5495 17.7695 10.4821 17.7799L10.4605 17.783C10.3942 17.793 10.3277 17.8023 10.2609 17.8108L10.2373 17.8138C10.1707 17.8221 10.104 17.8297 10.037 17.8366L10.0139 17.8389C9.94602 17.8457 9.87789 17.8516 9.80953 17.8569L9.78969 17.8584C9.71962 17.8637 9.64927 17.8681 9.57874 17.8717L9.56463 17.8725C9.49142 17.8762 9.41793 17.8789 9.34429 17.8808L9.33828 17.881C9.26201 17.883 9.18556 17.8839 9.10883 17.8839C9.03215 17.8839 8.9557 17.883 8.87943 17.881L8.87332 17.8808C8.79969 17.8789 8.72634 17.8761 8.65317 17.8725L8.63879 17.8717C8.56835 17.8681 8.49814 17.8637 8.42807 17.8584L8.40809 17.8569C8.33978 17.8517 8.27174 17.8456 8.20389 17.8389L8.18058 17.8365C8.11361 17.8297 8.04687 17.8221 7.98036 17.8138L7.95682 17.8108C7.89003 17.8023 7.82353 17.793 7.7572 17.783L7.73565 17.7799C7.66835 17.7696 7.60134 17.7585 7.53455 17.7467L7.51624 17.7435C7.44668 17.7311 7.37735 17.7179 7.30834 17.7039L7.30038 17.7023C7.22967 17.6879 7.15927 17.6726 7.0892 17.6566L7.07524 17.6533C7.00965 17.6382 6.94439 17.6223 6.87936 17.6058L6.85175 17.5986C6.79056 17.5829 6.7296 17.5664 6.66897 17.5494L6.63632 17.5401C6.57744 17.5234 6.51879 17.506 6.46038 17.4881L6.42611 17.4774C6.36839 17.4594 6.3109 17.4409 6.25368 17.4218L6.21775 17.4097C6.16118 17.3905 6.10499 17.3708 6.04898 17.3506L6.01323 17.3377C5.95736 17.3172 5.90172 17.2961 5.84636 17.2746L5.80972 17.2603C5.75348 17.2382 5.69752 17.2154 5.64183 17.1921L5.60238 17.1756C5.54758 17.1524 5.49305 17.1287 5.43875 17.1044L5.39495 17.0846C5.34255 17.0609 5.29042 17.0367 5.23853 17.0119L5.19565 16.9912C5.14667 16.9675 5.09793 16.9435 5.04946 16.919C5.03257 16.9104 5.01579 16.9017 4.99895 16.8931C4.95319 16.8695 4.90756 16.8456 4.86227 16.8214L4.80789 16.7919C4.76416 16.7681 4.7207 16.7439 4.67743 16.7194L4.62186 16.6877C4.57919 16.6631 4.53675 16.6381 4.49455 16.6128L4.43945 16.5797C4.39688 16.5538 4.35461 16.5275 4.31254 16.5009C4.29142 16.4875 4.27037 16.4742 4.24938 16.4607C4.21061 16.4358 4.17207 16.4105 4.13372 16.3849C4.11007 16.3692 4.08656 16.3534 4.06308 16.3375C4.02653 16.3127 3.99012 16.2876 3.95397 16.2623C3.93125 16.2463 3.90864 16.2303 3.88606 16.2142C3.85007 16.1885 3.81429 16.1625 3.77871 16.1364C3.75566 16.1194 3.73278 16.1023 3.70993 16.0851C3.67272 16.0571 3.63564 16.029 3.59889 16.0004C3.58033 15.986 3.56184 15.9714 3.54342 15.9569C3.50693 15.9281 3.47068 15.8991 3.43467 15.8698C3.41548 15.8541 3.39636 15.8383 3.3773 15.8226C3.34228 15.7936 3.3075 15.7643 3.27294 15.7348C3.25422 15.7189 3.23556 15.7028 3.21697 15.6866C3.18258 15.6568 3.14846 15.6266 3.11454 15.5962C3.09622 15.5798 3.07786 15.5634 3.05964 15.5468C3.02172 15.5123 2.98411 15.4775 2.9468 15.4423L2.90127 15.399C2.86688 15.3662 2.83279 15.333 2.79894 15.2997C2.78095 15.2819 2.76302 15.2641 2.74516 15.2462C2.71277 15.2137 2.68064 15.181 2.64875 15.148C2.63073 15.1294 2.61277 15.1106 2.59491 15.0918C2.56335 15.0586 2.53205 15.0252 2.501 14.9915L2.44921 14.9349C2.41802 14.9004 2.38706 14.8657 2.35639 14.8308L2.30881 14.7762C2.27688 14.7392 2.24525 14.7021 2.21396 14.6646L2.17465 14.6173C2.14156 14.5771 2.10883 14.5367 2.07644 14.496C2.06347 14.4797 2.0506 14.4633 2.03776 14.447C2.00723 14.408 1.977 14.3688 1.94711 14.3294C1.9337 14.3117 1.9204 14.2939 1.90713 14.2762C1.8775 14.2365 1.8482 14.1965 1.81921 14.1563L1.78066 14.1023C1.75212 14.0621 1.72389 14.0216 1.69602 13.9809L1.65881 13.9261C1.63094 13.8847 1.6034 13.8431 1.5762 13.8013L1.54284 13.7496C1.51491 13.7059 1.48737 13.662 1.4602 13.6179L1.43137 13.5708C1.40326 13.5246 1.37566 13.478 1.34839 13.4312L1.32056 13.3831C1.29319 13.3355 1.26625 13.2876 1.23974 13.2393L1.21433 13.1927C1.18919 13.1463 1.16442 13.0996 1.14007 13.0527L1.11337 13.0008C1.08943 12.9539 1.06588 12.9067 1.04273 12.8594L1.01836 12.809C0.995342 12.7611 0.972762 12.713 0.950576 12.6647L0.92813 12.6154C0.905583 12.5654 0.883498 12.5152 0.861849 12.4647L0.843228 12.4211C0.820611 12.3676 0.798529 12.3138 0.776946 12.2598L0.760584 12.2185C0.739033 12.1638 0.718016 12.1089 0.69753 12.0536L0.682365 12.0122C0.662045 11.9565 0.642191 11.9006 0.622935 11.8445L0.610265 11.8069C0.591707 11.7519 0.573683 11.6967 0.556156 11.6412L0.542422 11.5971C0.528122 11.551 0.514386 11.5046 0.500851 11.4582C0.396692 11.0664 0.600055 10.6521 0.981041 10.5024C2.91979 9.74059 5.84108 9.2557 9.10883 9.2557C12.3767 9.2557 15.2979 9.74059 17.2367 10.5024C17.6177 10.6521 17.821 11.0664 17.7168 11.4582ZM0.500818 6.4819C0.514486 6.4351 0.528288 6.3883 0.542721 6.34177L0.555758 6.30005C0.573517 6.24379 0.591774 6.1878 0.610597 6.13205L0.62267 6.09628C0.642191 6.03923 0.662344 5.98246 0.682997 5.92593L0.696964 5.88785C0.71775 5.83177 0.739101 5.77597 0.76095 5.72045L0.776514 5.68126C0.79843 5.62634 0.82088 5.5716 0.843889 5.51723L0.860886 5.47745C0.883133 5.42562 0.905782 5.37397 0.928963 5.32265L0.949914 5.27668C0.972295 5.22789 0.995111 5.1793 1.01836 5.13093L1.04247 5.08113C1.06588 5.03313 1.08976 4.98536 1.11404 4.93782L1.13898 4.88931C1.16385 4.8414 1.18913 4.79373 1.21483 4.74633L1.23971 4.70068C1.26621 4.65245 1.29315 4.6045 1.32056 4.55681L1.34839 4.50871C1.37586 4.46151 1.40373 4.41458 1.43203 4.36797L1.45933 4.32342C1.48687 4.2787 1.51481 4.23418 1.54311 4.18995L1.5762 4.13868C1.60357 4.09654 1.63127 4.05467 1.65934 4.01306L1.69602 3.95904C1.72412 3.91803 1.75259 3.87721 1.78136 3.83666L1.81871 3.7844C1.84797 3.74381 1.8775 3.70346 1.90743 3.66337L1.94504 3.61325C1.97591 3.57247 2.00717 3.53195 2.03873 3.49173L2.07637 3.44403C2.1091 3.40285 2.14219 3.362 2.17568 3.32142L2.21376 3.27561C2.24578 3.2373 2.27811 3.19926 2.31077 3.16149L2.3549 3.11082C2.38676 3.07453 2.41888 3.03851 2.45131 3.00275L2.49916 2.95039C2.53139 2.91537 2.56395 2.88063 2.59674 2.84613L2.64686 2.79387C2.67948 2.76014 2.71231 2.72666 2.74543 2.69345C2.76319 2.67566 2.78104 2.65793 2.79894 2.64027C2.83279 2.60689 2.86688 2.57371 2.90127 2.54087L2.9468 2.4976C2.98408 2.46248 3.02172 2.42768 3.05964 2.39315C3.07783 2.37657 3.09618 2.36013 3.11454 2.34369C3.1485 2.31333 3.18258 2.28316 3.21697 2.2533C3.23546 2.23725 3.25402 2.22124 3.27264 2.20533C3.30779 2.17533 3.34318 2.1456 3.37877 2.11613C3.39692 2.10111 3.41508 2.08613 3.43337 2.07124C3.46992 2.04144 3.50677 2.012 3.54382 1.98276C3.56208 1.96837 3.5803 1.95395 3.59865 1.9397C3.63617 1.91059 3.67398 1.88187 3.71196 1.85333C3.73281 1.83769 3.7537 1.82201 3.77468 1.80653C3.8118 1.77914 3.84914 1.75212 3.88669 1.72529C3.90904 1.70931 3.93145 1.69344 3.95397 1.67766C3.99012 1.65232 4.02653 1.62725 4.06308 1.60244C4.08656 1.5865 4.11007 1.57069 4.13372 1.55498C4.1721 1.52948 4.21061 1.50417 4.24938 1.47923C4.27037 1.46574 4.29142 1.45237 4.31254 1.43904C4.35461 1.41248 4.39688 1.38615 4.43945 1.36025C4.4576 1.3492 4.4759 1.33829 4.49412 1.32737C4.53705 1.30167 4.58019 1.2763 4.62355 1.2513L4.67553 1.22159C4.71956 1.19666 4.7638 1.17205 4.80826 1.1478L4.86227 1.11856C4.90756 1.09428 4.95316 1.0704 4.99895 1.04685C5.01579 1.03818 5.03257 1.02948 5.04946 1.02095C5.09793 0.996409 5.14667 0.972427 5.19565 0.948745L5.23853 0.927972C5.29038 0.903196 5.34255 0.879048 5.39495 0.855302L5.43875 0.835521C5.49305 0.811276 5.54758 0.787558 5.60238 0.764338L5.64183 0.747801C5.69752 0.724549 5.75348 0.701725 5.80972 0.679562L5.84636 0.665342C5.90172 0.643807 5.95736 0.622738 6.01323 0.602264L6.04898 0.589364C6.10494 0.569121 6.16118 0.549372 6.21775 0.530222L6.25368 0.518148C6.3109 0.499064 6.36839 0.480505 6.42611 0.462515L6.46038 0.451862C6.51879 0.433934 6.57744 0.416602 6.63632 0.399798L6.66897 0.390504C6.7296 0.373436 6.79056 0.357063 6.85175 0.341286L6.87936 0.334141C6.94435 0.317569 7.00965 0.301726 7.07524 0.286609L7.0892 0.283335C7.15927 0.267259 7.22967 0.252044 7.30038 0.237623L7.30834 0.236035C7.37735 0.22201 7.44668 0.208846 7.51624 0.196409L7.53455 0.193233C7.60134 0.181458 7.6684 0.17041 7.73565 0.16009L7.7572 0.156882C7.82353 0.146892 7.89003 0.137631 7.95682 0.129097L7.98036 0.126153C8.04687 0.117851 8.11361 0.110276 8.18058 0.103396L8.20389 0.101048C8.27174 0.0943001 8.33978 0.0882803 8.40809 0.083021L8.42807 0.0814661C8.49814 0.0762401 8.56835 0.0718407 8.63879 0.0682024L8.65317 0.0674418C8.72634 0.0638035 8.79969 0.0609918 8.87332 0.0591064L8.87943 0.058908C8.95565 0.0570226 9.03215 0.0560303 9.10883 0.0560303C9.18556 0.0560303 9.26201 0.0569561 9.33828 0.058908L9.34429 0.0591064C9.41793 0.0609918 9.49137 0.0637703 9.56463 0.0674418L9.57874 0.0682024C9.64927 0.0718407 9.71957 0.0762401 9.78969 0.0814661L9.80953 0.083021C9.87789 0.0882803 9.94602 0.0942673 10.0139 0.101048L10.037 0.103363C10.104 0.11021 10.1707 0.117818 10.2373 0.126153L10.2609 0.129097C10.3276 0.137598 10.3942 0.146892 10.4605 0.156882L10.4821 0.16009C10.5495 0.170443 10.6168 0.181557 10.6839 0.193366L10.7012 0.196343C10.7711 0.208812 10.8408 0.222109 10.9103 0.2362L10.917 0.237523C10.988 0.251978 11.0586 0.267293 11.1289 0.283434L11.1417 0.286444C11.2076 0.301626 11.273 0.317537 11.3383 0.334141L11.3659 0.341286C11.4271 0.357063 11.4881 0.37347 11.5487 0.390504L11.5813 0.399798C11.6404 0.416668 11.6993 0.434033 11.7578 0.452027L11.7914 0.462413C11.8494 0.480505 11.9073 0.499193 11.9649 0.518444L11.9992 0.529955C12.0562 0.549275 12.1129 0.569153 12.1693 0.589562L12.2044 0.602232C12.2608 0.622835 12.3168 0.644107 12.3727 0.665836L12.4072 0.679267C12.4643 0.701725 12.5211 0.724844 12.5775 0.748461L12.6133 0.763447C12.6689 0.786962 12.7242 0.811013 12.7792 0.835622L12.8221 0.855035C12.875 0.879016 12.9277 0.903395 12.98 0.928368L13.0206 0.947984C13.0701 0.971928 13.1193 0.99621 13.1683 1.02102L13.2179 1.04639C13.264 1.0701 13.3099 1.09418 13.3556 1.11866L13.4085 1.1473C13.4533 1.17171 13.4979 1.19646 13.5421 1.22159L13.5941 1.2513C13.6375 1.2763 13.6807 1.30167 13.7236 1.32737C13.7418 1.33829 13.7601 1.3492 13.7783 1.36025C13.821 1.38632 13.8635 1.41278 13.9059 1.4395C13.9257 1.45204 13.9455 1.46458 13.9652 1.47725C14.0051 1.50285 14.0446 1.52878 14.084 1.55498C14.1073 1.57049 14.1305 1.58607 14.1537 1.60178C14.1909 1.62702 14.2279 1.65255 14.2647 1.67832C14.2868 1.69387 14.309 1.70955 14.331 1.72529C14.3686 1.75212 14.4059 1.77914 14.443 1.80653C14.4636 1.82171 14.4841 1.83706 14.5046 1.85244C14.5433 1.88155 14.5819 1.91085 14.6202 1.94055C14.638 1.95441 14.6557 1.96837 14.6734 1.98237C14.7106 2.01174 14.7476 2.04131 14.7843 2.07124L14.8389 2.11613C14.8745 2.1456 14.9099 2.17533 14.9451 2.20533C14.9637 2.22124 14.9823 2.23725 15.0007 2.2533C15.0351 2.2832 15.0693 2.31333 15.1032 2.34369C15.1215 2.3601 15.1398 2.37657 15.1581 2.39315C15.196 2.42764 15.2336 2.46244 15.2709 2.4976L15.3164 2.54087C15.3511 2.57398 15.3854 2.60735 15.4195 2.64099C15.4372 2.65842 15.4548 2.67589 15.4723 2.69345C15.5054 2.72666 15.5382 2.76014 15.5708 2.79387C15.5876 2.81124 15.6043 2.82864 15.621 2.84613C15.6538 2.88063 15.6863 2.91537 15.7185 2.95039L15.7664 3.00275C15.7992 3.03894 15.8317 3.07539 15.8639 3.11211L15.9064 3.16083C15.9393 3.1989 15.972 3.23727 16.0043 3.27594L16.0408 3.31993C16.0747 3.36104 16.1082 3.40249 16.1414 3.44416L16.1778 3.49021C16.2108 3.53228 16.2436 3.57465 16.2758 3.61736L16.3087 3.66128C16.3398 3.70283 16.3704 3.74463 16.4007 3.78674L16.4347 3.83421C16.4647 3.87651 16.4943 3.91902 16.5236 3.96182L16.5564 4.01011C16.5857 4.05351 16.6146 4.0972 16.6431 4.14113L16.6727 4.18697C16.7021 4.23292 16.7312 4.27913 16.7598 4.32563L16.7846 4.36615C16.8137 4.41408 16.8423 4.46231 16.8706 4.5108L16.896 4.55476C16.9241 4.60374 16.9518 4.65296 16.979 4.70253L17.0016 4.74397C17.0284 4.79336 17.0548 4.84302 17.0806 4.89296L17.1023 4.93509C17.1275 4.98429 17.1522 5.03377 17.1764 5.08348L17.1978 5.1277C17.2221 5.17814 17.2459 5.22882 17.2692 5.27977L17.2872 5.31923C17.3111 5.37203 17.3344 5.42516 17.3573 5.47851L17.373 5.51539C17.3963 5.5704 17.419 5.6257 17.4412 5.68126L17.4568 5.72045C17.4787 5.77611 17.5 5.832 17.5209 5.88822L17.5341 5.92422C17.5549 5.98131 17.5753 6.03863 17.595 6.09628L17.6071 6.13205C17.6259 6.1878 17.6442 6.24379 17.6619 6.30005L17.675 6.34177C17.6894 6.3883 17.7032 6.4351 17.7169 6.4819C17.8209 6.87374 17.6176 7.28793 17.2367 7.43756C15.2979 8.19933 12.3767 8.68426 9.10883 8.68426C5.84108 8.68426 2.91979 8.19933 0.981041 7.43756C0.600122 7.28793 0.396825 6.87374 0.500818 6.4819Z" fill="#CBC9C9"></path>
        <path d="M15.3324 9.91758C14.8729 12.9257 12.2615 15.2308 9.10867 15.2308C5.95594 15.2308 3.34448 12.9257 2.88501 9.91758C4.63084 9.501 6.78189 9.25504 9.10867 9.25504C11.4355 9.25504 13.5865 9.501 15.3324 9.91758ZM2.88504 8.02108C3.34452 5.01295 5.95594 2.70789 9.10867 2.70789C12.2615 2.70789 14.8729 5.01295 15.3323 8.02108C13.5865 8.43771 11.4355 8.68361 9.10867 8.68361C6.78189 8.68361 4.63088 8.43771 2.88504 8.02108Z" fill="#959595"></path>
        <path d="M12.7039 9.46069C12.4631 11.2216 10.9455 12.5788 9.10884 12.5788C7.27228 12.5788 5.75465 11.2216 5.51382 9.46069C6.6361 9.32799 7.84657 9.25558 9.10884 9.25558C10.3712 9.25558 11.5817 9.32799 12.7039 9.46069ZM5.51382 8.47899C5.75465 6.71799 7.27232 5.36084 9.10884 5.36084C10.9455 5.36084 12.4631 6.71799 12.7039 8.47899C11.5817 8.61169 10.3712 8.68415 9.10884 8.68415C7.84657 8.68415 6.6361 8.61169 5.51382 8.47899Z" fill="#505050"></path>
    </g>
    <defs>
        <clipPath id="clip0_2209_40501">
            <rect width="18" height="18" rx="9" fill="white"></rect>
        </clipPath>
    </defs>
</svg>
